<svg width="35" height="27" viewBox="0 0 35 27" fill="none" xmlns="http://www.w3.org/2000/svg">
<path fill-rule="evenodd" clip-rule="evenodd" d="M17.5008 16.7411L17.6823 16.7411L18.0884 16.7425C21.1919 16.7629 28.2843 17.0765 28.2843 21.8836C28.2843 26.6593 21.4391 26.9707 18.1367 26.991L16.9132 26.991C13.8095 26.9706 6.71572 26.6575 6.71572 21.8563C6.71572 17.0747 13.8095 16.7628 16.9132 16.7425L17.3193 16.7411C17.3823 16.7411 17.4428 16.7411 17.5008 16.7411ZM17.5008 19.1524C13.6813 19.1524 9.12705 19.6218 9.12705 21.8563C9.12705 24.0402 13.4094 24.5508 17.1517 24.5798L17.5008 24.5811C21.3204 24.5811 25.8729 24.1133 25.8729 21.8836C25.8729 19.6266 21.3204 19.1524 17.5008 19.1524ZM30.2866 16.0887C34.1818 16.6723 35 18.5017 35 19.934C35 20.8085 34.656 22.4048 32.3572 23.2809C32.2157 23.334 32.071 23.3597 31.928 23.3597C31.4425 23.3597 30.9843 23.0639 30.8011 22.5832C30.5631 21.9611 30.8766 21.2634 31.4987 21.0271C32.5887 20.6124 32.5887 20.1542 32.5887 19.934C32.5887 19.2299 31.6933 18.738 29.9282 18.4743C29.2707 18.3747 28.8157 17.7622 28.9138 17.1015C29.0119 16.4424 29.6227 16.0035 30.2866 16.0887ZM6.0862 17.1015C6.18426 17.7622 5.72932 18.3747 5.07183 18.4743C3.30674 18.738 2.41133 19.2299 2.41133 19.934C2.41133 20.1542 2.41133 20.6108 3.50286 21.0271C4.12498 21.2634 4.43846 21.9611 4.20054 22.5832C4.01728 23.0639 3.55913 23.3597 3.07364 23.3597C2.93057 23.3597 2.78589 23.334 2.64443 23.2809C0.344017 22.4032 0 20.8069 0 19.934C0 18.5033 0.818245 16.6723 4.71496 16.0887C5.37888 16.0051 5.98653 16.4424 6.0862 17.1015ZM17.5008 0C21.5518 0 24.8457 3.29549 24.8457 7.34492C24.8457 11.3943 21.5518 14.6898 17.5008 14.6898H17.4574C15.4962 14.6834 13.6587 13.915 12.2827 12.5261C10.9034 11.1387 10.1495 9.29649 10.1574 7.34009C10.1574 3.29549 13.4514 0 17.5008 0ZM17.5008 2.41133C14.7808 2.41133 12.5688 4.62493 12.5688 7.34492C12.564 8.66311 13.0688 9.89611 13.9931 10.8269C14.9175 11.7577 16.1488 12.2737 17.4606 12.2785L17.5008 13.4842V12.2785C20.2208 12.2785 22.4344 10.0665 22.4344 7.34492C22.4344 4.62493 20.2208 2.41133 17.5008 2.41133ZM27.45 1.5746C30.276 2.03918 32.3289 4.45695 32.3289 7.32321C32.3225 10.2088 30.1667 12.6844 27.3133 13.0847C27.2571 13.0927 27.2008 13.0959 27.1461 13.0959C26.5545 13.0959 26.0385 12.6603 25.9533 12.0575C25.8617 11.3968 26.3198 10.7875 26.9806 10.6959C28.6524 10.4612 29.9143 9.01115 29.9176 7.32C29.9176 5.64332 28.7151 4.22546 27.0577 3.95378C26.4018 3.84607 25.9565 3.22556 26.0642 2.56807C26.1736 1.91058 26.7893 1.47011 27.45 1.5746ZM8.93736 2.56807C9.04507 3.22556 8.59977 3.84607 7.94389 3.95378C6.2865 4.22546 5.08405 5.64332 5.08405 7.32321C5.08727 9.01115 6.3492 10.4628 8.01945 10.6959C8.68015 10.7875 9.1383 11.3968 9.04667 12.0575C8.96147 12.6603 8.44545 13.0959 7.85387 13.0959C7.79921 13.0959 7.74295 13.0927 7.68668 13.0847C4.83327 12.6844 2.67915 10.2088 2.67272 7.32643C2.67272 4.45694 4.72557 2.03918 7.55165 1.5746C8.22843 1.4685 8.82805 1.91379 8.93736 2.56807Z" fill="#1E2529"/>
</svg>
