<svg width="30" height="30" viewBox="0 0 30 30" fill="none" xmlns="http://www.w3.org/2000/svg">
<path fill-rule="evenodd" clip-rule="evenodd" d="M3.45235 4.47984C3.45528 4.47984 3.38211 4.55594 3.28992 4.64667C2.93578 4.99056 2.20263 5.70615 2.19524 7.20318C2.1836 9.29728 3.56064 13.1855 10.1912 19.8146C16.791 26.4115 20.6734 27.8046 22.7719 27.8046H22.8026C24.2996 27.7973 25.0137 27.0627 25.3591 26.71C25.4645 26.6017 25.5493 26.5227 25.6093 26.4729C27.0669 25.0066 27.8132 23.915 27.8059 23.2155C27.7956 22.5013 26.9074 21.657 25.6796 20.4892C25.2889 20.1175 24.8645 19.7136 24.4167 19.2658C23.2562 18.1083 22.6811 18.3058 21.4168 18.7507C19.668 19.3638 17.2681 20.198 13.5394 16.4678C9.80487 12.7362 10.6405 10.3392 11.2522 8.59047C11.6941 7.32611 11.896 6.74954 10.7341 5.58762C10.279 5.13397 9.87072 4.70374 9.49464 4.30862C8.33418 3.08817 7.49713 2.20575 6.78739 2.19551H6.77568C6.07472 2.19551 4.98597 2.94476 3.44503 4.48569C3.44942 4.4813 3.45089 4.47984 3.45235 4.47984ZM22.7733 29.9997C19.1266 29.9997 14.3721 27.0963 8.64002 21.3672C2.88602 15.6147 -0.0217053 10.8455 0.000121976 7.19148C0.0134157 4.77691 1.27924 3.54035 1.75483 3.07646C1.77971 3.04573 1.86459 2.96232 1.89386 2.93305C3.99234 0.833104 5.40742 -0.0156545 6.81519 0.000218244C8.44978 0.0223933 9.61317 1.24578 11.0853 2.79549C11.4497 3.1789 11.8448 3.59596 12.2853 4.03497C14.4218 6.1715 13.8131 7.91439 13.3243 9.31337C12.7916 10.8397 12.3307 12.1567 15.0906 14.9166C17.8534 17.6766 19.1705 17.2156 20.6909 16.6786C22.0914 16.1898 23.8299 15.5781 25.9693 17.7146C26.4025 18.1478 26.8137 18.5385 27.1927 18.9C28.7498 20.3794 29.979 21.5487 29.9997 23.1877C30.017 24.5852 29.1683 26.009 27.0727 28.1061L26.1449 27.4768L26.9293 28.2436C26.4654 28.7192 25.2303 29.9865 22.8143 29.9997H22.7733Z" fill="#55D6D9"/>
</svg>
