<svg width="30" height="30" viewBox="0 0 30 30" fill="none" xmlns="http://www.w3.org/2000/svg">
<path fill-rule="evenodd" clip-rule="evenodd" d="M15.0024 0C19.0125 0 22.7811 1.55908 25.6117 4.39111C31.4628 10.2422 31.4628 19.7614 25.6117 25.6125C22.7434 28.4822 18.8813 30.0008 14.9689 30.0008C12.8362 30.0008 10.6895 29.55 8.68093 28.6204C8.08913 28.3831 7.535 28.1598 7.13721 28.1598C6.67939 28.1626 6.06386 28.3747 5.46926 28.5799C4.24935 28.9986 2.73075 29.5206 1.60715 28.4012C0.487736 27.2804 1.00417 25.766 1.42011 24.5475C1.62529 23.9473 1.83605 23.3276 1.83605 22.8586C1.83605 22.4734 1.65042 21.9821 1.36568 21.2744C-1.24861 15.6285 -0.0398672 8.82409 4.39451 4.3925C7.22514 1.56048 10.9923 0 15.0024 0ZM15.0038 2.09366C11.552 2.09366 8.30966 3.4364 5.87403 5.87342C2.05798 9.68668 1.01953 15.542 3.28766 20.4453C3.61427 21.2535 3.92972 22.0407 3.92972 22.8586C3.92972 23.6751 3.64917 24.4972 3.40211 25.2231C3.19833 25.8204 2.88986 26.7221 3.08806 26.9203C3.28208 27.1213 4.18933 26.8045 4.78812 26.5993C5.50694 26.3536 6.32207 26.0717 7.13023 26.0661C7.93978 26.0661 8.70327 26.3732 9.51142 26.6984C14.4622 28.9875 20.3175 27.9462 24.1322 24.133C29.1653 19.097 29.1653 10.9052 24.1322 5.87203C21.6951 3.435 18.4542 2.09366 15.0038 2.09366ZM20.5128 14.1848C21.2832 14.1848 21.9086 14.8088 21.9086 15.5806C21.9086 16.3525 21.2832 16.9764 20.5128 16.9764C19.7423 16.9764 19.1114 16.3525 19.1114 15.5806C19.1114 14.8088 19.7297 14.1848 20.5002 14.1848H20.5128ZM14.9174 14.1848C15.6879 14.1848 16.3132 14.8088 16.3132 15.5806C16.3132 16.3525 15.6879 16.9764 14.9174 16.9764C14.1469 16.9764 13.516 16.3525 13.516 15.5806C13.516 14.8088 14.133 14.1848 14.9048 14.1848H14.9174ZM9.32146 14.1848C10.0919 14.1848 10.7172 14.8088 10.7172 15.5806C10.7172 16.3525 10.0919 16.9764 9.32146 16.9764C8.55099 16.9764 7.9201 16.3525 7.9201 15.5806C7.9201 14.8088 8.53843 14.1848 9.30889 14.1848H9.32146Z" fill="white"/>
</svg>
