<svg width="25" height="25" viewBox="0 0 25 25" fill="none" xmlns="http://www.w3.org/2000/svg">
<path d="M19.7434 23.983C17.6731 23.9288 16.0387 22.2065 16.0929 20.1361C16.1471 18.0657 17.8694 16.4314 19.9398 16.4856C22.0101 16.5398 23.6445 18.262 23.5903 20.3325C23.5361 22.4029 21.8138 24.0372 19.7434 23.983Z" stroke="#1E2529" stroke-width="1.5"/>
<path d="M14.3257 8.44137L18.2499 16.8321" stroke="#1E2529" stroke-width="1.5"/>
<path d="M12.6389 8.79184C10.5685 8.73763 8.93418 7.01532 8.98839 4.94497C9.0426 2.87461 10.7649 1.2402 12.8353 1.29441C14.9057 1.34863 16.54 3.07094 16.4858 5.14129C16.4316 7.21165 14.7094 8.84606 12.6389 8.79184Z" stroke="#1E2529" stroke-width="1.5"/>
<path d="M6.61194 16.5313L10.9658 8.36523" stroke="#1E2529" stroke-width="1.5"/>
<path d="M4.74832 23.5904C2.6779 23.5362 1.04355 21.814 1.09777 19.7435C1.15198 17.6731 2.87423 16.0388 4.94464 16.093C7.01506 16.1472 8.64941 17.8695 8.5952 19.9399C8.54098 22.0103 6.81873 23.6446 4.74832 23.5904Z" stroke="#1E2529" stroke-width="1.5"/>
</svg>
