<svg width="33" height="39" viewBox="0 0 33 39" fill="none" xmlns="http://www.w3.org/2000/svg">
<path fill-rule="evenodd" clip-rule="evenodd" d="M16.5 0C25.598 0 33 7.458 33 16.626C33 27.896 20.088 39 16.5 39C12.912 39 0 27.896 0 16.626C0 7.458 7.402 0 16.5 0ZM16.5 3C9.056 3 3 9.114 3 16.626C3 26.184 14.248 35.496 16.5 35.992C18.752 35.494 30 26.182 30 16.626C30 9.114 23.944 3 16.5 3ZM16.502 10C20.086 10 23.002 12.916 23.002 16.502C23.002 20.086 20.086 23 16.502 23C12.918 23 10.002 20.086 10.002 16.502C10.002 12.916 12.918 10 16.502 10ZM16.502 13C14.572 13 13.002 14.57 13.002 16.502C13.002 18.432 14.572 20 16.502 20C18.432 20 20.002 18.432 20.002 16.502C20.002 14.57 18.432 13 16.502 13Z" fill="#52D4D6"/>
</svg>
