<svg width="24" height="28" viewBox="0 0 24 28" fill="none" xmlns="http://www.w3.org/2000/svg">
<path fill-rule="evenodd" clip-rule="evenodd" d="M11.8462 0C18.378 0 23.6923 5.35446 23.6923 11.9366C23.6923 20.0279 14.4222 28 11.8462 28C9.27015 28 0 20.0279 0 11.9366C0 5.35446 5.31426 0 11.8462 0ZM11.8462 2.15385C6.50174 2.15385 2.15385 6.54338 2.15385 11.9366C2.15385 18.7988 10.2293 25.4843 11.8462 25.8404C13.463 25.4829 21.5385 18.7973 21.5385 11.9366C21.5385 6.54338 17.1906 2.15385 11.8462 2.15385ZM11.8476 7.17949C14.4207 7.17949 16.5143 9.27303 16.5143 11.8476C16.5143 14.4207 14.4207 16.5128 11.8476 16.5128C9.27446 16.5128 7.18092 14.4207 7.18092 11.8476C7.18092 9.27303 9.27446 7.17949 11.8476 7.17949ZM11.8476 9.33333C10.4619 9.33333 9.33477 10.4605 9.33477 11.8476C9.33477 13.2332 10.4619 14.359 11.8476 14.359C13.2332 14.359 14.3604 13.2332 14.3604 11.8476C14.3604 10.4605 13.2332 9.33333 11.8476 9.33333Z" fill="#52D4D6"/>
</svg>
