<svg width="33" height="28" viewBox="0 0 33 28" fill="none" xmlns="http://www.w3.org/2000/svg">
<path fill-rule="evenodd" clip-rule="evenodd" d="M24.0347 0C29.1459 0 33 3.79116 33 8.81861V18.4019C33 20.9749 31.9993 23.2995 30.1804 24.9488C28.5488 26.4265 26.4322 27.2093 24.0593 27.2093H8.93609C6.56777 27.2093 4.4527 26.4279 2.81958 24.9488C1.00074 23.2995 0 20.9749 0 18.4019V8.81861C0 3.79116 3.85409 0 8.96526 0H24.0347ZM24.0347 2.09302H8.96526C5.10502 2.09302 2.30233 4.9214 2.30233 8.81861V18.4019C2.30233 20.4153 3.06363 22.214 4.44502 23.4656C5.63609 24.547 7.19093 25.1163 8.9407 25.1163H24.0347C24.0378 25.1135 24.0501 25.1163 24.0593 25.1163C25.8106 25.1163 27.3639 24.547 28.555 23.4656C29.9379 22.214 30.6977 20.4153 30.6977 18.4019V8.81861C30.6977 4.9214 27.895 2.09302 24.0347 2.09302ZM26.4537 8.55181C26.8543 8.99972 26.7791 9.65833 26.2864 10.0239L19.4654 15.0639C18.6028 15.6862 17.5713 15.9974 16.5414 15.9974C15.5146 15.9974 14.4908 15.689 13.6344 15.0723L6.75042 10.0267C6.25465 9.66391 6.17791 9.00391 6.57544 8.5546C6.97605 8.1067 7.70051 8.03554 8.19474 8.39693L15.0726 13.4369C15.9367 14.0593 17.1539 14.0593 18.0241 13.4313L24.8329 8.39972C25.3271 8.03274 26.0516 8.10251 26.4537 8.55181Z" fill="#5AD9DC"/>
</svg>
