<svg width="24" height="24" viewBox="0 0 24 24" fill="none" xmlns="http://www.w3.org/2000/svg">
<path fill-rule="evenodd" clip-rule="evenodd" d="M23.1388 15.4833C23.6347 15.521 24.0056 15.9599 23.9684 16.462L23.7403 19.5125C23.5518 22.0292 21.4544 24 18.9631 24H5.03616C2.54491 24 0.447464 22.0292 0.258969 19.5125L0.0308554 16.462C-0.00636318 15.9599 0.365823 15.521 0.861671 15.4833C1.35992 15.4651 1.78973 15.8213 1.82815 16.3247L2.05507 19.3739C2.17273 20.9447 3.48138 22.1763 5.03616 22.1763H18.9631C20.5179 22.1763 21.8278 20.9447 21.9442 19.3739L22.1723 16.3247C22.2107 15.8213 22.6514 15.4639 23.1388 15.4833ZM13.5487 0C15.3531 0 16.848 1.36931 17.0731 3.13558L19.4377 3.13664C21.9542 3.13664 24 5.21444 24 7.77005V11.9512C24 12.2758 23.8295 12.5749 23.5546 12.7378C20.5911 14.4952 16.8371 15.5203 12.8999 15.657L12.9003 17.8438C12.9003 18.3471 12.4969 18.7556 11.9999 18.7556C11.5028 18.7556 11.0994 18.3471 11.0994 17.8438L11.0986 15.6573C7.1654 15.5218 3.41109 14.4966 0.445423 12.7378C0.169285 12.5749 0 12.2758 0 11.9512V7.75789C0 5.20958 2.05183 3.13664 4.57429 3.13664L6.92663 3.13558C7.15179 1.36931 8.64668 0 10.4511 0H13.5487ZM19.4377 4.96034H4.57429C3.04472 4.96034 1.8009 6.21504 1.8009 7.75789V11.4199C4.65078 12.988 8.2436 13.8474 11.9832 13.849L11.9999 13.8475L12.0132 13.848L12.5849 13.8419C16.1216 13.7566 19.4955 12.9069 22.1991 11.4199V7.77005C22.1991 6.21991 20.9613 4.96034 19.4377 4.96034ZM13.5487 1.8237H10.4511C9.64269 1.8237 8.96027 2.38087 8.75868 3.13589H15.2411C15.0395 2.38087 14.3571 1.8237 13.5487 1.8237Z" fill="#53D6D7"/>
</svg>
