<svg width="23" height="25" viewBox="0 0 23 25" fill="none" xmlns="http://www.w3.org/2000/svg">
<path fill-rule="evenodd" clip-rule="evenodd" d="M11.4996 0C13.0356 0 21.0948 2.50663 22.1616 3.47318C23.0509 4.27884 23.0374 4.92975 22.975 8.04922C22.9506 9.29947 22.9167 11.0029 22.9167 13.3609C22.9167 21.813 12.2479 24.8367 11.7938 24.9607C11.6976 24.9877 11.5986 25 11.4996 25C11.4007 25 11.3017 24.9877 11.2055 24.9607C10.7513 24.8367 0.082545 21.813 0.082545 13.3609C0.082545 11.0066 0.0486543 9.30315 0.024253 8.05291C0.0131175 7.4952 0.0035382 7.01633 0.000385963 6.60133L0 6.13304C0.0116287 4.59462 0.171 4.07742 0.838985 3.47318C1.90315 2.50663 9.96236 0 11.4996 0ZM11.4996 1.84221C10.3501 1.84221 3.09746 4.15602 2.26104 4.78851C2.01431 5.01326 2.00482 5.40381 2.05769 8.01852C2.0821 9.27859 2.11599 10.9906 2.11599 13.3609C2.11599 19.7485 9.87288 22.5842 11.4983 23.1062C13.1223 22.5818 20.8833 19.7301 20.8833 13.3609C20.8833 10.9882 20.9172 9.27491 20.9429 8.01484C20.9944 5.40258 20.985 5.01204 20.7233 4.77623C19.9032 4.15602 12.6492 1.84221 11.4996 1.84221ZM16.5446 9.01393C16.9418 9.37377 16.9418 9.95714 16.5446 10.317L11.2604 15.1055C11.1085 15.244 10.9125 15.3338 10.702 15.3642L10.5419 15.3757C10.2721 15.3757 10.0132 15.2787 9.82205 15.1055L7.2572 12.7794C6.86136 12.4196 6.86136 11.835 7.25856 11.4763C7.6544 11.1165 8.29968 11.1165 8.69688 11.4763L10.5419 13.1503L15.1076 9.01393C15.5048 8.65408 16.1474 8.65408 16.5446 9.01393Z" fill="#50D3D5"/>
</svg>
